<svg xmlns="http://www.w3.org/2000/svg" xml:space="preserve" width="400px" height="400px" version="1.1" shape-rendering="geometricPrecision" text-rendering="geometricPrecision" image-rendering="optimizeQuality" fill-rule="evenodd" clip-rule="evenodd"
viewBox="0 0 400 400">
 <g>
  <rect fill="#00B9FF" width="400" height="400"/>
  <path fill="white" fill-rule="nonzero" d="M45.94 86.16c51.33,14.01 102.69,0.94 154.06,-12.16 56,-14.27 112,-28.54 168,-7.64 10.88,4.06 17.38,14.96 17.38,26.57l0 199.44c0,15.39 -16.48,25.56 -31.35,21.5 -51.3,-14.03 -102.66,-0.96 -154.03,12.1 -56.58,14.29 -112.58,28.58 -168.02,7.66 -10.88,-4.05 -17.36,-14.93 -17.36,-26.58l0 -199.41c0,-15.39 16.48,-25.54 31.32,-21.48l0 0zm153.48 175.64c29.03,0 52.07,-27.68 52.07,-62.37 0,-34.12 -23.04,-61.8 -52.07,-61.8 -27.87,0 -51.49,27.68 -51.49,61.8 0,34.69 23.62,62.37 51.49,62.37zm-144.18 41.19l41.19 0c0,-22.72 -17.86,-41.19 -41.19,-41.19l0 41.19zm0 -175.66l0 41.2c23.33,0 41.19,-17.9 41.19,-41.2l-41.19 0zm288.94 102.99c-22.72,0 -41.19,19.05 -41.19,41.78l41.19 0 0 -41.78zm-41.19 -133.88c0,23.3 18.47,41.19 41.19,41.19l0 -41.19 -41.19 0z"/>
 </g>
</svg>
